<svg width="126" height="45" viewBox="0 0 126 45" fill="none" xmlns="http://www.w3.org/2000/svg">
<path d="M0 15.959H9.47482V44.056H6.32978V16.7223H3.14504V44.056H0V15.959Z" fill="#B9916A"/>
<path d="M21.8933 28.2602C23.5324 28.2602 24.715 28.8285 25.441 29.9679C26.167 31.1073 26.53 32.6 26.53 34.449V37.9859C26.53 38.8963 26.4024 39.7218 26.1471 40.4569C25.8919 41.1948 25.5431 41.8309 25.0979 42.3653C24.6554 42.9024 24.1365 43.318 23.5466 43.6121C22.9539 43.9061 22.3101 44.0531 21.6125 44.0531H17.0552V15.959H20.2002V28.2602H21.8933ZM23.385 34.1691C23.385 32.2664 23.2176 30.932 22.8802 30.1686C22.5427 29.4053 22.0265 29.0236 21.3289 29.0236H20.2002V43.253H21.3289C21.8933 43.253 22.3782 42.8968 22.7809 42.1872C23.1836 41.4775 23.385 40.1713 23.385 38.2686V34.1691Z" fill="#B9916A"/>
<path d="M40.443 15.959V16.7223H36.6117V29.3035H39.6348V30.1064H36.6117V43.2898H40.443V44.0531H33.5063V15.959H40.443Z" fill="#B9916A"/>
<path d="M51.6509 15.999C53.1029 15.999 54.2854 16.4966 55.1986 17.4861C56.1118 18.4785 56.5684 19.7762 56.5684 21.3849V25.4844C56.5684 27.1185 56.1175 28.419 55.2185 29.3831C54.3166 30.3472 53.1284 30.8306 51.6509 30.8306H50.6016V44.0564H47.4565V15.999H51.6509ZM53.4262 20.9438C53.4262 19.3634 53.2985 18.2721 53.0433 17.6671C52.7881 17.0649 52.3116 16.7624 51.6112 16.7624H50.6044V30.0673H51.6537C52.3513 30.0673 52.8221 29.7846 53.066 29.222C53.307 28.6593 53.429 27.5878 53.429 26.0074V20.9438H53.4262Z" fill="#B9916A"/>
<path d="M75.8042 44.056H72.6591V21.8679L72.7385 20.2592H72.4549L72.3755 21.8679L69.5935 44.056H68.1415L64.1088 21.8679L63.9075 20.2592H63.6239L63.7458 21.8679V44.056H62.9404V15.959H66.3265L69.4319 34.008L69.6332 35.6167H69.9168L69.9962 34.008L72.3358 15.959H75.8042V44.056Z" fill="#B9916A"/>
<path d="M83.2202 15.7698C83.2202 14.9923 83.3478 14.2685 83.6031 13.5985C83.8583 12.9284 84.2014 12.346 84.6325 11.8512C85.0636 11.3565 85.574 10.9607 86.1639 10.6666C86.7538 10.3726 87.3862 10.2256 88.0583 10.2256C88.7304 10.2256 89.394 10.3726 89.9725 10.6666C90.5511 10.9607 91.0615 11.3565 91.5039 11.8512C91.9463 12.3488 92.2895 12.9312 92.5334 13.5985C92.7744 14.2685 92.8964 14.9923 92.8964 15.7698V38.56C92.8964 39.3093 92.7744 40.0217 92.5334 40.6918C92.2923 41.3618 91.9492 41.9527 91.5039 42.4616C91.0615 42.9705 90.5482 43.3663 89.9725 43.6462C89.394 43.9289 88.7559 44.0675 88.0583 44.0675C87.3607 44.0675 86.7538 43.9261 86.1639 43.6462C85.5712 43.3635 85.055 42.9705 84.6126 42.4616C84.1702 41.9527 83.8271 41.3618 83.5832 40.6918C83.3422 40.0217 83.2202 39.3121 83.2202 38.56V15.7698ZM86.3681 40.6918C86.3681 42.4079 86.9324 43.2645 88.0611 43.2645C89.1898 43.2645 89.7542 42.4079 89.7542 40.6918V13.8812C89.7542 11.9785 89.1898 11.0285 88.0611 11.0285C86.9324 11.0285 86.3681 11.9813 86.3681 13.8812V40.6889V40.6918Z" fill="#B9916A"/>
<path d="M103.341 15.999V29.6658H106.526V15.999H109.671V44.0564H106.526V30.4292H103.341V44.0564H100.196V15.999H103.341Z" fill="#B9916A"/>
<path d="M126 16.7223H122.532V44.056H119.387V16.7223H115.918V15.959H125.997V16.7223H126Z" fill="#B9916A"/>
<path d="M87.0317 6.73445L90.6957 0H94.615L89.6209 6.73445H87.0317Z" fill="#B9916A"/>
</svg>
